<?xml version="1.0" encoding="UTF-8" standalone="no"?>
<svg
   xmlns:dc="http://purl.org/dc/elements/1.1/"
   xmlns:cc="http://creativecommons.org/ns#"
   xmlns:rdf="http://www.w3.org/1999/02/22-rdf-syntax-ns#"
   xmlns:svg="http://www.w3.org/2000/svg"
   xmlns="http://www.w3.org/2000/svg"
   xmlns:sodipodi="http://sodipodi.sourceforge.net/DTD/sodipodi-0.dtd"
   xmlns:inkscape="http://www.inkscape.org/namespaces/inkscape"
   height="512pt"
   viewBox="0 0 512 512"
   width="512pt"
   version="1.1"
   id="svg5970"
   sodipodi:docname="logo-app@2x.svg"
   inkscape:version="0.92.4 5da689c313, 2019-01-14"
   inkscape:export-filename="/home/merito/Dokumenty/coronavirus/koronapoints/koronapoints-frontend/public/logo-app@2x.svg.png"
   inkscape:export-xdpi="10.55"
   inkscape:export-ydpi="10.55">
  <metadata
     id="metadata5976">
    <rdf:RDF>
      <cc:Work
         rdf:about="">
        <dc:format>image/svg+xml</dc:format>
        <dc:type
           rdf:resource="http://purl.org/dc/dcmitype/StillImage" />
      </cc:Work>
    </rdf:RDF>
  </metadata>
  <defs
     id="defs5974" />
  <sodipodi:namedview
     pagecolor="#ffffff"
     bordercolor="#666666"
     borderopacity="1"
     objecttolerance="10"
     gridtolerance="10"
     guidetolerance="10"
     inkscape:pageopacity="0"
     inkscape:pageshadow="2"
     inkscape:window-width="1914"
     inkscape:window-height="1015"
     id="namedview5972"
     showgrid="false"
     inkscape:zoom="0.69140625"
     inkscape:cx="341.40993"
     inkscape:cy="229.96184"
     inkscape:window-x="0"
     inkscape:window-y="28"
     inkscape:window-maximized="0"
     inkscape:current-layer="svg5970" />
  <path
     d="M 174.16797,40 H 172 v -2.167969 c 0,-5.519531 -4.47656,-10 -10,-10 -5.52344,0 -10,4.480469 -10,10 V 40 h -2.16797 c -5.51953,0 -10,4.476562 -10,10 0,5.523438 4.48047,10 10,10 H 152 v 2.167969 c 0,5.519531 4.47656,10 10,10 5.52344,0 10,-4.480469 10,-10 V 60 h 2.16797 c 5.51953,0 10,-4.476562 10,-10 0,-5.523438 -4.48047,-10 -10,-10 z m 0,0"
     id="path5954"
     style="fill:#00017f;fill-opacity:1"
     inkscape:connector-curvature="0" />
  <path
     d="m 144,138 c 0,-5.52344 -4.47656,-10 -10,-10 H 78 c -5.523438,0 -10,4.47656 -10,10 v 56 c 0,5.52344 4.476562,10 10,10 h 56 c 5.52344,0 10,-4.47656 10,-10 z m -20,46 H 88 v -36 h 36 z m 0,0"
     id="path5956"
     style="fill:#00017f;fill-opacity:1"
     inkscape:connector-curvature="0" />
  <path
     d="m 190,128 c -5.52344,0 -10,4.47656 -10,10 v 56 c 0,5.52344 4.47656,10 10,10 h 56 c 5.52344,0 10,-4.47656 10,-10 v -56 c 0,-5.52344 -4.47656,-10 -10,-10 z m 46,56 h -36 v -36 h 36 z m 0,0"
     id="path5958"
     style="fill:#00017f;fill-opacity:1"
     inkscape:connector-curvature="0" />
  <path
     d="m 144,242 c 0,-5.52344 -4.47656,-10 -10,-10 H 78 c -5.523438,0 -10,4.47656 -10,10 v 56 c 0,5.52344 4.476562,10 10,10 h 56 c 5.52344,0 10,-4.47656 10,-10 z m -20,46 H 88 v -36 h 36 z m 0,0"
     id="path5960"
     style="fill:#00017f;fill-opacity:1"
     inkscape:connector-curvature="0" />
  <path
     d="m 302,248 c -2.62891,0 -5.21094,1.07031 -7.07031,2.92969 C 293.07031,252.78906 292,255.37109 292,258 c 0,2.62891 1.07031,5.21094 2.92969,7.07031 C 296.78906,266.92969 299.37109,268 302,268 c 2.62891,0 5.21094,-1.07031 7.07031,-2.92969 C 310.92969,263.21094 312,260.62891 312,258 c 0,-2.62891 -1.07031,-5.21094 -2.92969,-7.07031 C 307.21094,249.07031 304.62891,248 302,248 Z m 0,0"
     id="path5962"
     style="opacity:1;fill:#00017f;fill-opacity:1"
     inkscape:export-xdpi="269.99979"
     inkscape:export-ydpi="269.99979"
     inkscape:connector-curvature="0" />
  <path
     d="M 134,336 H 78 c -5.523438,0 -10,4.47656 -10,10 v 56 c 0,5.52344 4.476562,10 10,10 h 56 c 5.52344,0 10,-4.47656 10,-10 v -56 c 0,-5.52344 -4.47656,-10 -10,-10 z m -10,56 H 88 v -36 h 36 z m 0,0"
     id="path5964"
     style="fill:#00017f;fill-opacity:1"
     inkscape:connector-curvature="0" />
  <path
     d="m 509.80078,403.92969 -59.60937,-74.33203 c -1.89454,-2.36719 -4.76563,-3.74219 -7.80079,-3.74219 H 392.78125 V 298 c 0,-5.52344 -4.47656,-10 -10,-10 H 256 v -46 c 0,-5.52344 -4.47656,-10 -10,-10 h -56 c -5.52344,0 -10,4.47656 -10,10 V 452 H 32 V 100 h 260 v 118 c 0,5.52344 4.47656,10 10,10 5.52344,0 10,-4.47656 10,-10 V 90 c 0,-5.523438 -4.47656,-10 -10,-10 H 228 V 10 C 228,4.476562 223.52344,0 218,0 H 106 C 100.47656,0 96,4.476562 96,10 V 80 H 22 c -5.523438,0 -10,4.476562 -10,10 v 362 h -2 c -5.523438,0 -10,4.47656 -10,10 v 40 c 0,5.52344 4.476562,10 10,10 h 304 c 5.52344,0 10,-4.47656 10,-10 v -24.24219 h 75.59375 C 401.44141,496.94531 417.65234,512 437.31641,512 c 19.66406,0 35.875,-15.05469 37.72265,-34.24219 H 502 c 5.52344,0 10,-4.48047 10,-10 v -57.57422 c 0,-2.27343 -0.77344,-4.48047 -2.19922,-6.2539 z M 116,20 h 92 v 60 h -92 z m 365.5625,380.68359 h -35.23047 c -3.92578,0 -7.12109,-3.19531 -7.12109,-7.12109 V 347.875 Z M 372.78125,457.75781 H 288.875 c -6.11328,-12.74218 -19.14063,-21.5625 -34.19141,-21.5625 -15.05078,0 -28.07812,8.82032 -34.19531,21.5625 H 200 V 308 h 172.78125 z m -136,16.33985 c 0,-9.8711 8.03125,-17.90235 17.90234,-17.90235 9.8711,0 17.90235,8.03125 17.90235,17.90235 0,9.87109 -8.03125,17.90234 -17.90235,17.90234 -9.87109,0 -17.90234,-8.03125 -17.90234,-17.90234 z M 236,252 v 36 H 200 V 252 Z M 20,472 h 160.95312 c 1.60157,3.39844 5.04297,5.75781 9.04688,5.75781 h 26.96094 c 0.49218,5.10938 2,9.92578 4.32422,14.24219 H 20 Z m 284,20 h -15.92188 c 2.32422,-4.31641 3.83594,-9.13281 4.32813,-14.24219 H 304 Z m 133.31641,0 c -9.8711,0 -17.90235,-8.03125 -17.90235,-17.90234 0,-9.8711 8.03125,-17.90235 17.90235,-17.90235 9.87109,0 17.90234,8.03125 17.90234,17.90235 0,9.87109 -8.03125,17.90234 -17.90234,17.90234 z m 34.19531,-34.24219 c -6.11328,-12.74219 -19.14453,-21.5625 -34.19531,-21.5625 -15.05079,0 -28.07813,8.82031 -34.19141,21.5625 H 392.78125 V 345.85547 h 26.43359 v 47.70703 c 0,14.95312 12.16407,27.12109 27.1211,27.12109 H 492 v 37.07422 z m 0,0"
     id="path5966"
     style="fill:#00017f;fill-opacity:1"
     inkscape:connector-curvature="0" />
  <path
     d="m 258.07422,394.68359 h 18.3164 V 413 c 0,5.52344 4.47657,10 10,10 5.51954,0 10,-4.47656 10,-10 v -18.31641 h 18.31641 c 5.51953,0 10,-4.48047 10,-10 0,-5.52343 -4.48047,-10 -10,-10 h -18.31641 v -18.3164 c 0,-5.52344 -4.48046,-10 -10,-10 -5.52343,0 -10,4.47656 -10,10 v 18.3164 h -18.3164 c -5.52344,0 -10,4.47657 -10,10 0,5.51953 4.47656,10 10,10 z m 0,0"
     id="path5968"
     style="fill:#00017f;fill-opacity:1"
     inkscape:connector-curvature="0" />
</svg>
