<?xml version="1.0" encoding="UTF-8" standalone="no"?>
<svg
   xmlns:dc="http://purl.org/dc/elements/1.1/"
   xmlns:cc="http://creativecommons.org/ns#"
   xmlns:rdf="http://www.w3.org/1999/02/22-rdf-syntax-ns#"
   xmlns:svg="http://www.w3.org/2000/svg"
   xmlns="http://www.w3.org/2000/svg"
   xmlns:sodipodi="http://sodipodi.sourceforge.net/DTD/sodipodi-0.dtd"
   xmlns:inkscape="http://www.inkscape.org/namespaces/inkscape"
   height="509.38828pt"
   viewBox="0 0 508.64804 509.38828"
   width="508.64804pt"
   version="1.1"
   id="svg5970"
   sodipodi:docname="phone_logo.svg"
   inkscape:version="0.92.4 5da689c313, 2019-01-14"
   inkscape:export-filename="/home/merito/Dokumenty/coronavirus/koronapoints/koronapoints-frontend/public/favicon/mstile-150x150.png"
   inkscape:export-xdpi="21.23"
   inkscape:export-ydpi="21.23">
  <metadata
     id="metadata5976">
    <rdf:RDF>
      <cc:Work
         rdf:about="">
        <dc:format>image/svg+xml</dc:format>
        <dc:type
           rdf:resource="http://purl.org/dc/dcmitype/StillImage" />
      </cc:Work>
    </rdf:RDF>
  </metadata>
  <defs
     id="defs5974" />
  <sodipodi:namedview
     pagecolor="#ffffff"
     bordercolor="#666666"
     borderopacity="1"
     objecttolerance="10"
     gridtolerance="10"
     guidetolerance="10"
     inkscape:pageopacity="0"
     inkscape:pageshadow="2"
     inkscape:window-width="1914"
     inkscape:window-height="1015"
     id="namedview5972"
     showgrid="false"
     inkscape:zoom="0.48889805"
     inkscape:cx="284.3997"
     inkscape:cy="-37.969129"
     inkscape:window-x="0"
     inkscape:window-y="28"
     inkscape:window-maximized="0"
     inkscape:current-layer="layer2" />
  <g
     inkscape:groupmode="layer"
     id="layer2"
     inkscape:label="Layer 2">
    <rect
       style="opacity:1;fill:#ffffff;fill-opacity:1;stroke:none;stroke-width:0.15000001;stroke-miterlimit:4;stroke-dasharray:none;stroke-opacity:1"
       id="rect1729"
       width="508.92511"
       height="509.30862"
       x="0"
       y="0.079650313" />
  </g>
  <g
     inkscape:groupmode="layer"
     id="layer1"
     inkscape:label="Layer 1"
     transform="translate(-555.66079,-183.67088)">
    <g
       transform="translate(550.84249,181.28026)"
       id="g1692">
      <g
         style="fill:#00017f;fill-opacity:1"
         id="g998"
         transform="matrix(1.0750992,0,0,1.0750992,4.4479092,2.3904177)">
        <g
           style="fill:#00017f;fill-opacity:1"
           id="g996">
          <path
             style="fill:#00017f;fill-opacity:1"
             id="path990"
             d="m 374.456,293.506 c -9.7,-10.1 -21.4,-15.5 -33.8,-15.5 -12.3,0 -24.1,5.3 -34.2,15.4 l -31.6,31.5 c -2.6,-1.4 -5.2,-2.7 -7.7,-4 -3.6,-1.8 -7,-3.5 -9.9,-5.3 -29.6,-18.8 -56.5,-43.3 -82.3,-75 -12.5,-15.8 -20.9,-29.1 -27,-42.6 8.2,-7.5 15.8,-15.3 23.2,-22.8 2.8,-2.8 5.6,-5.7 8.4,-8.5 21,-21 21,-48.2 0,-69.2 l -27.3,-27.3 c -3.1,-3.1 -6.3,-6.3 -9.3,-9.5 -6,-6.2 -12.3,-12.6 -18.8,-18.6 -9.7,-9.6 -21.3,-14.7 -33.5,-14.7 -12.2,0 -24,5.1 -34,14.7 -0.1,0.1 -0.1,0.1 -0.2,0.2 l -34,34.3 c -12.8,12.8 -20.1,28.4 -21.7,46.5 -2.4,29.2 6.2,56.4 12.8,74.2 16.2,43.7 40.4,84.2 76.5,127.6 43.8,52.3 96.5,93.6 156.7,122.7 23,10.9 53.7,23.8 88,26 2.1,0.1 4.3,0.2 6.3,0.2 23.1,0 42.5,-8.3 57.7,-24.8 0.1,-0.2 0.3,-0.3 0.4,-0.5 5.2,-6.3 11.2,-12 17.5,-18.1 4.3,-4.1 8.7,-8.4 13,-12.9 9.9,-10.3 15.1,-22.3 15.1,-34.6 0,-12.4 -5.3,-24.3 -15.4,-34.3 z m 35.8,105.3 c -0.1,0 -0.1,0.1 0,0 -3.9,4.2 -7.9,8 -12.2,12.2 -6.5,6.2 -13.1,12.7 -19.3,20 -10.1,10.8 -22,15.9 -37.6,15.9 -1.5,0 -3.1,0 -4.6,-0.1 -29.7,-1.9 -57.3,-13.5 -78,-23.4 -56.6,-27.4 -106.3,-66.3 -147.6,-115.6 -34.1,-41.1 -56.9,-79.1 -72,-119.9 -9.3,-24.9 -12.7,-44.3 -11.2,-62.6 1,-11.7 5.5,-21.4 13.8,-29.7 l 34.1,-34.1 c 4.9,-4.6 10.1,-7.1 15.2,-7.1 6.3,0 11.4,3.8 14.6,7 0.1,0.1 0.2,0.2 0.3,0.3 6.1,5.7 11.9,11.6 18,17.9 3.1,3.2 6.3,6.4 9.5,9.7 l 27.3,27.3 c 10.6,10.6 10.6,20.4 0,31 -2.9,2.9 -5.7,5.8 -8.6,8.6 -8.4,8.6 -16.4,16.6 -25.1,24.4 -0.2,0.2 -0.4,0.3 -0.5,0.5 -8.6,8.6 -7,17 -5.2,22.7 0.1,0.3 0.2,0.6 0.3,0.9 7.1,17.2 17.1,33.4 32.3,52.7 l 0.1,0.1 c 27.6,34 56.7,60.5 88.8,80.8 4.1,2.6 8.3,4.7 12.3,6.7 3.6,1.8 7,3.5 9.9,5.3 0.4,0.2 0.8,0.5 1.2,0.7 3.4,1.7 6.6,2.5 9.9,2.5 8.3,0 13.5,-5.2 15.2,-6.9 l 34.2,-34.2 c 3.4,-3.4 8.8,-7.5 15.1,-7.5 6.2,0 11.3,3.9 14.4,7.3 0.1,0.1 0.1,0.1 0.2,0.2 l 55.1,55.1 c 10.3,10.2 10.3,20.7 0.1,31.3 z"
             inkscape:connector-curvature="0" />
          <path
             style="fill:#00017f;fill-opacity:1"
             id="path992"
             d="m 256.056,112.706 c 26.2,4.4 50,16.8 69,35.8 19,19 31.3,42.8 35.8,69 1.1,6.6 6.8,11.2 13.3,11.2 0.8,0 1.5,-0.1 2.3,-0.2 7.4,-1.2 12.3,-8.2 11.1,-15.6 -5.4,-31.7 -20.4,-60.6 -43.3,-83.5 -22.9,-22.9 -51.8,-37.9 -83.5,-43.3 -7.4,-1.2 -14.3,3.7 -15.6,11 -1.3,7.3 3.5,14.4 10.9,15.6 z"
             inkscape:connector-curvature="0" />
          <path
             style="fill:#00017f;fill-opacity:1"
             id="path994"
             d="m 473.256,209.006 c -8.9,-52.2 -33.5,-99.7 -71.3,-137.5 -37.8,-37.8 -85.3,-62.4 -137.5,-71.3 -7.3,-1.3 -14.2,3.7 -15.5,11 -1.2,7.4 3.7,14.3 11.1,15.6 46.6,7.9 89.1,30 122.9,63.7 33.8,33.8 55.8,76.3 63.7,122.9 1.1,6.6 6.8,11.2 13.3,11.2 0.8,0 1.5,-0.1 2.3,-0.2 7.3,-1.1 12.3,-8.1 11,-15.4 z"
             inkscape:connector-curvature="0" />
        </g>
      </g>
      <path
         inkscape:connector-curvature="0"
         style="fill:#00017f;fill-opacity:1;stroke-width:1.57639956"
         id="path5968-3"
         d="m 244.98914,244.64539 h 28.87396 v 28.8739 c 0,8.70714 7.05687,15.76411 15.764,15.76411 8.701,0 15.76401,-7.05697 15.76401,-15.76411 v -28.8739 h 28.87397 c 8.70097,0 15.764,-7.06295 15.764,-15.76392 0,-8.70714 -7.06303,-15.7641 -15.764,-15.7641 h -28.87397 v -28.87391 c 0,-8.70714 -7.06301,-15.7641 -15.76401,-15.7641 -8.70713,0 -15.764,7.05696 -15.764,15.7641 v 28.87391 h -28.87396 c -8.70714,0 -15.76399,7.05696 -15.76399,15.7641 0,8.70097 7.05685,15.76392 15.76399,15.76392 z m 0,0" />
    </g>
  </g>
</svg>
