<?xml version="1.0" encoding="UTF-8" standalone="no"?>
<svg
   xmlns:dc="http://purl.org/dc/elements/1.1/"
   xmlns:cc="http://creativecommons.org/ns#"
   xmlns:rdf="http://www.w3.org/1999/02/22-rdf-syntax-ns#"
   xmlns:svg="http://www.w3.org/2000/svg"
   xmlns="http://www.w3.org/2000/svg"
   xmlns:sodipodi="http://sodipodi.sourceforge.net/DTD/sodipodi-0.dtd"
   xmlns:inkscape="http://www.inkscape.org/namespaces/inkscape"
   height="610.71185pt"
   viewBox="0 0 638.91522 610.71185"
   width="638.91522pt"
   version="1.1"
   id="svg5970"
   sodipodi:docname="woodboard.svg"
   inkscape:version="0.92.4 5da689c313, 2019-01-14"
   inkscape:export-filename="/home/merito/Dokumenty/coronavirus/koronapoints/koronapoints-frontend/public/logo-app@2x.png"
   inkscape:export-xdpi="11.25"
   inkscape:export-ydpi="11.25">
  <metadata
     id="metadata5976">
    <rdf:RDF>
      <cc:Work
         rdf:about="">
        <dc:format>image/svg+xml</dc:format>
        <dc:type
           rdf:resource="http://purl.org/dc/dcmitype/StillImage" />
        <dc:title></dc:title>
      </cc:Work>
    </rdf:RDF>
  </metadata>
  <defs
     id="defs5974" />
  <sodipodi:namedview
     pagecolor="#ffffff"
     bordercolor="#666666"
     borderopacity="1"
     objecttolerance="10"
     gridtolerance="10"
     guidetolerance="10"
     inkscape:pageopacity="0"
     inkscape:pageshadow="2"
     inkscape:window-width="1914"
     inkscape:window-height="1015"
     id="namedview5972"
     showgrid="false"
     inkscape:zoom="0.69140625"
     inkscape:cx="342.85624"
     inkscape:cy="355.79236"
     inkscape:window-x="0"
     inkscape:window-y="28"
     inkscape:window-maximized="0"
     inkscape:current-layer="layer8" />
  <g
     inkscape:groupmode="layer"
     id="layer8"
     inkscape:label="Layer 2"
     transform="translate(-236.47458,4.3389835)">
    <rect
       style="opacity:1;fill:#ffffff;fill-opacity:1;stroke:none;stroke-width:0.14999999;stroke-miterlimit:4;stroke-dasharray:none;stroke-opacity:1"
       id="rect8528"
       width="638.91522"
       height="610.71185"
       x="236.47458"
       y="-4.3389835" />
  </g>
  <g
     inkscape:groupmode="layer"
     id="layer6"
     inkscape:label="Layer 1"
     style="display:inline"
     transform="translate(-236.47458,4.3389835)">
    <path
       d="m 474.64252,83.389817 h -2.16797 v -2.167969 c 0,-5.519532 -4.47655,-10 -10,-10 -5.52344,0 -9.99999,4.480468 -9.99999,10 v 2.167969 h -2.16798 c -5.51952,0 -9.99999,4.476562 -9.99999,10 0,5.523438 4.48047,10.000003 9.99999,10.000003 h 2.16798 v 2.16797 c 0,5.51953 4.47655,10 9.99999,10 5.52345,0 10,-4.48047 10,-10 v -2.16797 h 2.16797 c 5.51954,0 10.00001,-4.476565 10.00001,-10.000003 0,-5.523438 -4.48047,-10 -10.00001,-10 z m 0,0"
       id="path5954"
       style="fill:#00017f;fill-opacity:1;stroke-width:1"
       inkscape:connector-curvature="0"
       inkscape:export-xdpi="5.625"
       inkscape:export-ydpi="5.625" />
    <path
       d="m 444.47455,181.38982 c 0,-5.52344 -4.47656,-9.99999 -9.99999,-9.99999 h -56 c -5.52344,0 -10,4.47655 -10,9.99999 v 56 c 0,5.52345 4.47656,10 10,10 h 56 c 5.52343,0 9.99999,-4.47655 9.99999,-10 z m -20,46.00001 h -35.99999 v -36.00001 h 35.99999 z m 0,0"
       id="path5956"
       style="fill:#00017f;fill-opacity:1;stroke-width:1"
       inkscape:connector-curvature="0"
       inkscape:export-xdpi="5.625"
       inkscape:export-ydpi="5.625" />
    <path
       d="m 490.47456,171.38983 c -5.52345,0 -10.00001,4.47655 -10.00001,9.99999 v 56 c 0,5.52345 4.47656,10 10.00001,10 h 56 c 5.52343,0 9.99999,-4.47655 9.99999,-10 v -56 c 0,-5.52344 -4.47656,-9.99999 -9.99999,-9.99999 z m 45.99999,56 h -36 v -36.00001 h 36 z m 0,0"
       id="path5958"
       style="fill:#00017f;fill-opacity:1;stroke-width:1"
       inkscape:connector-curvature="0"
       inkscape:export-xdpi="5.625"
       inkscape:export-ydpi="5.625" />
    <path
       d="m 444.47455,285.38982 c 0,-5.52343 -4.47656,-9.99999 -9.99999,-9.99999 h -56 c -5.52344,0 -10,4.47656 -10,9.99999 v 56 c 0,5.52345 4.47656,10.00001 10,10.00001 h 56 c 5.52343,0 9.99999,-4.47656 9.99999,-10.00001 z m -20,46.00001 h -35.99999 v -36 h 35.99999 z m 0,0"
       id="path5960"
       style="fill:#00017f;fill-opacity:1;stroke-width:1"
       inkscape:connector-curvature="0"
       inkscape:export-xdpi="5.625"
       inkscape:export-ydpi="5.625" />
    <path
       d="m 602.47456,291.38982 c -2.62892,0 -5.21094,1.07031 -7.07031,2.9297 -1.85939,1.85937 -2.9297,4.44139 -2.9297,7.07031 0,2.6289 1.07031,5.21094 2.9297,7.07031 1.85937,1.85937 4.44139,2.92968 7.07031,2.92968 2.62891,0 5.21094,-1.07031 7.07031,-2.92968 1.85938,-1.85937 2.92969,-4.44141 2.92969,-7.07031 0,-2.62892 -1.07031,-5.21094 -2.92969,-7.07031 -1.85937,-1.85939 -4.4414,-2.9297 -7.07031,-2.9297 z m 0,0"
       id="path5962"
       style="opacity:1;fill:#00017f;fill-opacity:1;stroke-width:1"
       inkscape:export-xdpi="269.99979"
       inkscape:export-ydpi="269.99979"
       inkscape:connector-curvature="0" />
    <path
       d="m 434.47456,379.38982 h -56 c -5.52344,0 -10,4.47657 -10,10.00001 v 56 c 0,5.52344 4.47656,10 10,10 h 56 c 5.52343,0 9.99999,-4.47656 9.99999,-10 v -56 c 0,-5.52344 -4.47656,-10.00001 -9.99999,-10.00001 z m -10.00001,56.00001 h -35.99999 v -36 h 35.99999 z m 0,0"
       id="path5964"
       style="fill:#00017f;fill-opacity:1;stroke-width:1"
       inkscape:connector-curvature="0"
       inkscape:export-xdpi="5.625"
       inkscape:export-ydpi="5.625" />
    <path
       d="m 810.27534,447.31952 -59.60937,-74.33203 c -1.89454,-2.36719 -4.76563,-3.74219 -7.80079,-3.74219 h -49.60937 v -27.85548 c 0,-5.52343 -4.47656,-9.99999 -10,-9.99999 H 556.47455 v -46.00001 c 0,-5.52343 -4.47656,-9.99999 -9.99999,-9.99999 h -56 c -5.52345,0 -10.00001,4.47656 -10.00001,9.99999 V 495.38983 H 332.47456 V 143.38982 h 259.99999 v 118 c 0,5.52345 4.47657,10.00001 10.00001,10.00001 5.52343,0 10,-4.47656 10,-10.00001 v -128 c 0,-5.52344 -4.47657,-10 -10,-10 h -74 V 53.389816 c 0,-5.523437 -4.47656,-10 -10.00001,-10 h -112 c -5.52344,0 -9.99999,4.476563 -9.99999,10 v 70.000004 h -74 c -5.52344,0 -10.00001,4.47656 -10.00001,10 v 362.00001 h -2 c -5.52343,0 -10,4.47656 -10,10 v 40 c 0,5.52344 4.47657,10 10,10 h 304.00001 c 5.52343,0 10,-4.47656 10,-10 v -24.24219 h 75.59375 c 1.84766,19.1875 18.05859,34.24219 37.72266,34.24219 19.66406,0 35.875,-15.05469 37.72265,-34.24219 h 26.96094 c 5.52344,0 10,-4.48047 10,-10 v -57.57422 c 0,-2.27343 -0.77344,-4.48047 -2.19922,-6.2539 z M 416.47455,63.389816 h 92.00001 V 123.38982 H 416.47455 Z M 782.03706,444.07342 h -35.23047 c -3.92578,0 -7.12109,-3.19531 -7.12109,-7.12109 v -45.6875 z m -108.78125,57.07422 h -83.90625 c -6.11328,-12.74218 -19.14064,-21.5625 -34.19141,-21.5625 -15.05078,0 -28.07813,8.82032 -34.19531,21.5625 H 500.47455 V 351.38983 h 172.78126 z m -136,16.33985 c 0,-9.8711 8.03124,-17.90235 17.90234,-17.90235 9.87109,0 17.90235,8.03125 17.90235,17.90235 0,9.87109 -8.03126,17.90234 -17.90235,17.90234 -9.8711,0 -17.90234,-8.03125 -17.90234,-17.90234 z m -0.78126,-222.09766 v 36 h -36 v -36 z m -216,220 h 160.95312 c 1.60158,3.39844 5.04297,5.75781 9.04689,5.75781 h 26.96094 c 0.49218,5.10938 1.99999,9.92578 4.32421,14.24219 H 320.47455 Z m 284,20 h -15.92187 c 2.32422,-4.31641 3.83594,-9.13281 4.32813,-14.24219 h 11.59374 z m 133.31642,0 c -9.8711,0 -17.90235,-8.03125 -17.90235,-17.90234 0,-9.8711 8.03125,-17.90235 17.90235,-17.90235 9.87109,0 17.90234,8.03125 17.90234,17.90235 0,9.87109 -8.03125,17.90234 -17.90234,17.90234 z m 34.19531,-34.24219 c -6.11328,-12.74219 -19.14453,-21.5625 -34.19531,-21.5625 -15.0508,0 -28.07813,8.82031 -34.19141,21.5625 H 693.25581 V 389.2453 h 26.43359 v 47.70703 c 0,14.95312 12.16407,27.12109 27.1211,27.12109 h 45.66406 v 37.07422 z m 0,0"
       id="path5966"
       style="fill:#00017f;fill-opacity:1;stroke-width:1"
       inkscape:connector-curvature="0"
       inkscape:export-xdpi="5.625"
       inkscape:export-ydpi="5.625" />
    <path
       d="m 558.54878,438.07342 h 18.3164 v 18.31641 c 0,5.52344 4.47657,10 10,10 5.51954,0 9.99999,-4.47656 9.99999,-10 v -18.31641 h 18.31641 c 5.51954,0 10.00001,-4.48047 10.00001,-10 0,-5.52343 -4.48047,-10.00001 -10.00001,-10.00001 h -18.31641 v -18.31639 c 0,-5.52344 -4.48045,-10.00001 -9.99999,-10.00001 -5.52343,0 -10,4.47657 -10,10.00001 v 18.31639 h -18.3164 c -5.52345,0 -10.00001,4.47658 -10.00001,10.00001 0,5.51953 4.47656,10 10.00001,10 z m 0,0"
       id="path5968"
       style="fill:#00017f;fill-opacity:1;stroke-width:1"
       inkscape:connector-curvature="0" />
  </g>
</svg>
