<?xml version="1.0" encoding="UTF-8" standalone="no"?>
<svg
   xmlns:dc="http://purl.org/dc/elements/1.1/"
   xmlns:cc="http://creativecommons.org/ns#"
   xmlns:rdf="http://www.w3.org/1999/02/22-rdf-syntax-ns#"
   xmlns:svg="http://www.w3.org/2000/svg"
   xmlns="http://www.w3.org/2000/svg"
   xmlns:sodipodi="http://sodipodi.sourceforge.net/DTD/sodipodi-0.dtd"
   xmlns:inkscape="http://www.inkscape.org/namespaces/inkscape"
   id="Layer_1"
   height="600"
   viewBox="0 0 150 150"
   width="600"
   data-name="Layer 1"
   version="1.1"
   sodipodi:docname="hospital_0.svg"
   inkscape:version="0.92.4 5da689c313, 2019-01-14">
  <metadata
     id="metadata7807">
    <rdf:RDF>
      <cc:Work
         rdf:about="">
        <dc:format>image/svg+xml</dc:format>
        <dc:type
           rdf:resource="http://purl.org/dc/dcmitype/StillImage" />
        <dc:title></dc:title>
      </cc:Work>
    </rdf:RDF>
  </metadata>
  <defs
     id="defs7805" />
  <sodipodi:namedview
     pagecolor="#ffffff"
     bordercolor="#666666"
     borderopacity="1"
     objecttolerance="10"
     gridtolerance="10"
     guidetolerance="10"
     inkscape:pageopacity="0"
     inkscape:pageshadow="2"
     inkscape:window-width="1914"
     inkscape:window-height="1015"
     id="namedview7803"
     showgrid="false"
     inkscape:zoom="0.921875"
     inkscape:cx="348.38841"
     inkscape:cy="360.48449"
     inkscape:window-x="0"
     inkscape:window-y="28"
     inkscape:window-maximized="0"
     inkscape:current-layer="layer6">
    <inkscape:grid
       type="xygrid"
       id="grid2774" />
  </sodipodi:namedview>
  <g
     inkscape:groupmode="layer"
     id="layer5"
     inkscape:label="Layer 2"
     transform="translate(-270.91525,-23.559311)">
    <rect
       style="opacity:1;fill:#ffffff;fill-opacity:1;stroke:none;stroke-width:0.04815109;stroke-miterlimit:4;stroke-dasharray:none;stroke-opacity:1"
       id="rect8414"
       width="150"
       height="150"
       x="270.91525"
       y="23.559311" />
  </g>
  <g
     inkscape:groupmode="layer"
     id="layer6"
     inkscape:label="Layer 3">
    <rect
       style="opacity:1;fill:#00ff00;fill-opacity:0.94117647;stroke:none;stroke-width:0.05;stroke-miterlimit:4;stroke-dasharray:none;stroke-opacity:1"
       id="rect2777"
       width="149.96609"
       height="30.644068"
       x="2.6855469e-06"
       y="119.35593" />
  </g>
  <g
     inkscape:groupmode="layer"
     id="layer4"
     inkscape:label="Layer 1"
     transform="translate(-270.91525,-23.559311)">
    <g
       transform="translate(284.09549,27.932202)"
       id="g8365">
      <path
         inkscape:connector-curvature="0"
         style="fill:#00017f;fill-opacity:1"
         id="path7782"
         d="m 51.5,43.442 h 5.75 v 5.75 a 1.75,1.75 0 0 0 1.75,1.75 h 10 a 1.75,1.75 0 0 0 1.75,-1.75 v -5.75 h 5.75 a 1.75,1.75 0 0 0 1.75,-1.75 v -10 a 1.75,1.75 0 0 0 -1.75,-1.75 h -5.75 v -5.75 A 1.75,1.75 0 0 0 69,22.442 H 59 a 1.75,1.75 0 0 0 -1.75,1.75 v 5.75 H 51.5 a 1.75,1.75 0 0 0 -1.75,1.75 v 10 a 1.75,1.75 0 0 0 1.75,1.75 z m 1.75,-10 H 59 a 1.75,1.75 0 0 0 1.75,-1.75 v -5.75 h 6.5 v 5.75 a 1.75,1.75 0 0 0 1.75,1.75 h 5.75 v 6.5 H 69 a 1.75,1.75 0 0 0 -1.75,1.75 v 5.75 h -6.5 v -5.75 A 1.75,1.75 0 0 0 59,39.942 h -5.75 z" />
      <path
         inkscape:connector-curvature="0"
         style="fill:#00017f;fill-opacity:1;stroke-width:0.81460315"
         id="path7788"
         d="M 111.5073,35.231125 H 89.326861 V 8.0618966 A 1.4376207,1.4135915 0 0 0 87.889241,6.6483051 H 40.653132 A 1.4376207,1.4135915 0 0 0 39.215511,8.0618966 V 35.231125 H 17.035078 a 1.4376207,1.4135915 0 0 0 -1.43762,1.413592 v 64.310333 a 1.4376207,1.4135915 0 0 0 1.43762,1.41359 H 111.5073 a 1.4376207,1.4135915 0 0 0 1.43762,-1.41359 V 36.644717 A 1.4376207,1.4135915 0 0 0 111.5073,35.231125 Z M 18.472699,38.058308 H 39.215511 V 99.541457 H 18.472699 Z M 42.090753,36.644717 V 9.4754881 H 86.45162 V 99.541457 H 77.029043 V 68.799481 A 1.4376207,1.4135915 0 0 0 75.591422,67.385889 H 52.95095 a 1.4376207,1.4135915 0 0 0 -1.43762,1.413592 v 30.741976 h -9.422577 z m 12.297818,33.568355 h 8.444995 V 99.541457 H 54.388571 Z M 65.708807,99.541457 V 70.213072 h 8.444995 v 29.328385 z m 44.360873,0 H 89.326861 V 38.058308 h 20.742819 z" />
    </g>
  </g>
</svg>
