<?xml version="1.0" encoding="UTF-8" standalone="no"?>
<svg
   xmlns:dc="http://purl.org/dc/elements/1.1/"
   xmlns:cc="http://creativecommons.org/ns#"
   xmlns:rdf="http://www.w3.org/1999/02/22-rdf-syntax-ns#"
   xmlns:svg="http://www.w3.org/2000/svg"
   xmlns="http://www.w3.org/2000/svg"
   xmlns:sodipodi="http://sodipodi.sourceforge.net/DTD/sodipodi-0.dtd"
   xmlns:inkscape="http://www.inkscape.org/namespaces/inkscape"
   id="Layer_1"
   height="609.62708"
   viewBox="0 0 159.18643 152.40677"
   width="636.74573"
   data-name="Layer 1"
   version="1.1"
   sodipodi:docname="hospital.svg"
   inkscape:version="0.92.4 5da689c313, 2019-01-14">
  <metadata
     id="metadata7807">
    <rdf:RDF>
      <cc:Work
         rdf:about="">
        <dc:format>image/svg+xml</dc:format>
        <dc:type
           rdf:resource="http://purl.org/dc/dcmitype/StillImage" />
      </cc:Work>
    </rdf:RDF>
  </metadata>
  <defs
     id="defs7805" />
  <sodipodi:namedview
     pagecolor="#ffffff"
     bordercolor="#666666"
     borderopacity="1"
     objecttolerance="10"
     gridtolerance="10"
     guidetolerance="10"
     inkscape:pageopacity="0"
     inkscape:pageshadow="2"
     inkscape:window-width="1914"
     inkscape:window-height="1015"
     id="namedview7803"
     showgrid="false"
     inkscape:zoom="0.921875"
     inkscape:cx="322.88452"
     inkscape:cy="300.74842"
     inkscape:window-x="0"
     inkscape:window-y="28"
     inkscape:window-maximized="0"
     inkscape:current-layer="layer5" />
  <g
     inkscape:groupmode="layer"
     id="layer5"
     inkscape:label="Layer 2"
     transform="translate(-270.91525,-21.152542)">
    <rect
       style="opacity:1;fill:#ffffff;fill-opacity:1;stroke:none;stroke-width:0.05;stroke-miterlimit:4;stroke-dasharray:none;stroke-opacity:1"
       id="rect8414"
       width="159.18643"
       height="152.40677"
       x="270.91525"
       y="21.152542" />
  </g>
  <g
     inkscape:groupmode="layer"
     id="layer4"
     inkscape:label="Layer 1"
     transform="translate(-270.91525,-21.152542)">
    <g
       transform="translate(287.07855,33.355932)"
       id="g8365">
      <path
         inkscape:connector-curvature="0"
         style="fill:#00017f;fill-opacity:1"
         id="path7782"
         d="m 51.5,43.442 h 5.75 v 5.75 a 1.75,1.75 0 0 0 1.75,1.75 h 10 a 1.75,1.75 0 0 0 1.75,-1.75 v -5.75 h 5.75 a 1.75,1.75 0 0 0 1.75,-1.75 v -10 a 1.75,1.75 0 0 0 -1.75,-1.75 h -5.75 v -5.75 A 1.75,1.75 0 0 0 69,22.442 H 59 a 1.75,1.75 0 0 0 -1.75,1.75 v 5.75 H 51.5 a 1.75,1.75 0 0 0 -1.75,1.75 v 10 a 1.75,1.75 0 0 0 1.75,1.75 z m 1.75,-10 H 59 a 1.75,1.75 0 0 0 1.75,-1.75 v -5.75 h 6.5 v 5.75 a 1.75,1.75 0 0 0 1.75,1.75 h 5.75 v 6.5 H 69 a 1.75,1.75 0 0 0 -1.75,1.75 v 5.75 h -6.5 v -5.75 A 1.75,1.75 0 0 0 59,39.942 h -5.75 z" />
      <path
         inkscape:connector-curvature="0"
         style="fill:#00017f;fill-opacity:1"
         id="path7784"
         d="m 57.438,69.5 a 1.75,1.75 0 0 0 1.75,-1.75 v -10 A 1.75,1.75 0 0 0 57.438,56 h -10 a 1.75,1.75 0 0 0 -1.75,1.75 v 10 a 1.75,1.75 0 0 0 1.75,1.75 z m -8.25,-10 h 6.5 V 66 h -6.5 z" />
      <path
         inkscape:connector-curvature="0"
         style="fill:#00017f;fill-opacity:1"
         id="path7786"
         d="m 68.813,57.75 v 10 a 1.75,1.75 0 0 0 1.75,1.75 h 10 a 1.75,1.75 0 0 0 1.75,-1.75 v -10 A 1.75,1.75 0 0 0 80.563,56 h -10 a 1.75,1.75 0 0 0 -1.75,1.75 z m 3.5,1.75 h 6.5 V 66 h -6.5 z" />
      <path
         inkscape:connector-curvature="0"
         style="fill:#00017f;fill-opacity:1"
         id="path7788"
         d="m 121.5,40.135 h -27 V 6.5 A 1.75,1.75 0 0 0 92.75,4.75 H 35.25 A 1.75,1.75 0 0 0 33.5,6.5 v 33.635 h -27 a 1.75,1.75 0 0 0 -1.75,1.75 V 121.5 a 1.75,1.75 0 0 0 1.75,1.75 h 115 a 1.75,1.75 0 0 0 1.75,-1.75 V 41.885 a 1.75,1.75 0 0 0 -1.75,-1.75 z M 8.25,43.635 H 33.5 V 119.75 H 8.25 Z M 37,41.885 V 8.25 h 54 v 111.5 H 79.53 V 81.692 a 1.75,1.75 0 0 0 -1.75,-1.75 H 50.22 a 1.75,1.75 0 0 0 -1.75,1.75 V 119.75 H 37 Z M 51.97,83.442 H 62.25 V 119.75 H 51.97 Z M 65.75,119.75 V 83.442 h 10.28 v 36.308 z m 54,0 H 94.5 V 43.635 h 25.25 z" />
      <path
         inkscape:connector-curvature="0"
         style="fill:#00017f;fill-opacity:1"
         id="path7790"
         d="m 102.125,69.5 h 10 a 1.75,1.75 0 0 0 1.75,-1.75 v -10 A 1.75,1.75 0 0 0 112.125,56 h -10 a 1.75,1.75 0 0 0 -1.75,1.75 v 10 a 1.75,1.75 0 0 0 1.75,1.75 z m 1.75,-10 h 6.5 V 66 h -6.5 z" />
      <path
         inkscape:connector-curvature="0"
         style="fill:#00017f;fill-opacity:1"
         id="path7792"
         d="m 102.125,91.192 h 10 a 1.75,1.75 0 0 0 1.75,-1.75 v -10 a 1.75,1.75 0 0 0 -1.75,-1.75 h -10 a 1.75,1.75 0 0 0 -1.75,1.75 v 10 a 1.75,1.75 0 0 0 1.75,1.75 z m 1.75,-10 h 6.5 v 6.5 h -6.5 z" />
      <path
         inkscape:connector-curvature="0"
         style="fill:#00017f;fill-opacity:1"
         id="path7794"
         d="m 102.125,112.885 h 10 a 1.75,1.75 0 0 0 1.75,-1.75 v -10 a 1.75,1.75 0 0 0 -1.75,-1.75 h -10 a 1.75,1.75 0 0 0 -1.75,1.75 v 10 a 1.75,1.75 0 0 0 1.75,1.75 z m 1.75,-10 h 6.5 v 6.5 h -6.5 z" />
      <path
         inkscape:connector-curvature="0"
         style="fill:#00017f;fill-opacity:1"
         id="path7796"
         d="m 25.875,56 h -10 a 1.75,1.75 0 0 0 -1.75,1.75 v 10 a 1.75,1.75 0 0 0 1.75,1.75 h 10 a 1.75,1.75 0 0 0 1.75,-1.75 v -10 A 1.75,1.75 0 0 0 25.875,56 Z m -1.75,10 h -6.5 v -6.5 h 6.5 z" />
      <path
         inkscape:connector-curvature="0"
         style="fill:#00017f;fill-opacity:1"
         id="path7798"
         d="m 25.875,77.692 h -10 a 1.75,1.75 0 0 0 -1.75,1.75 v 10 a 1.75,1.75 0 0 0 1.75,1.75 h 10 a 1.75,1.75 0 0 0 1.75,-1.75 v -10 a 1.75,1.75 0 0 0 -1.75,-1.75 z m -1.75,10 h -6.5 v -6.5 h 6.5 z" />
      <path
         inkscape:connector-curvature="0"
         style="fill:#00017f;fill-opacity:1"
         id="path7800"
         d="m 25.875,99.385 h -10 a 1.75,1.75 0 0 0 -1.75,1.75 v 10 a 1.75,1.75 0 0 0 1.75,1.75 h 10 a 1.75,1.75 0 0 0 1.75,-1.75 v -10 a 1.75,1.75 0 0 0 -1.75,-1.75 z m -1.75,10 h -6.5 v -6.5 h 6.5 z" />
    </g>
  </g>
</svg>
