<?xml version="1.0" encoding="UTF-8" standalone="no"?>
<!-- Generator: Adobe Illustrator 19.0.0, SVG Export Plug-In . SVG Version: 6.00 Build 0)  -->

<svg
   xmlns:dc="http://purl.org/dc/elements/1.1/"
   xmlns:cc="http://creativecommons.org/ns#"
   xmlns:rdf="http://www.w3.org/1999/02/22-rdf-syntax-ns#"
   xmlns:svg="http://www.w3.org/2000/svg"
   xmlns="http://www.w3.org/2000/svg"
   xmlns:sodipodi="http://sodipodi.sourceforge.net/DTD/sodipodi-0.dtd"
   xmlns:inkscape="http://www.inkscape.org/namespaces/inkscape"
   version="1.1"
   id="Capa_1"
   x="0px"
   y="0px"
   viewBox="0 0 600 600.00001"
   xml:space="preserve"
   sodipodi:docname="transport_2.svg"
   width="600"
   height="600"
   inkscape:version="0.92.4 5da689c313, 2019-01-14"
   inkscape:export-filename="/home/merito/Dokumenty/coronavirus/koronapoints/koronapoints-frontend/public/location-icons/transport_2.png"
   inkscape:export-xdpi="39.419998"
   inkscape:export-ydpi="39.419998"><metadata
   id="metadata3276"><rdf:RDF><cc:Work
       rdf:about=""><dc:format>image/svg+xml</dc:format><dc:type
         rdf:resource="http://purl.org/dc/dcmitype/StillImage" /><dc:title></dc:title></cc:Work></rdf:RDF></metadata><defs
   id="defs3274" /><sodipodi:namedview
   pagecolor="#ffffff"
   bordercolor="#666666"
   borderopacity="1"
   objecttolerance="10"
   gridtolerance="10"
   guidetolerance="10"
   inkscape:pageopacity="0"
   inkscape:pageshadow="2"
   inkscape:window-width="1914"
   inkscape:window-height="1015"
   id="namedview3272"
   showgrid="false"
   inkscape:zoom="0.92913386"
   inkscape:cx="130.38761"
   inkscape:cy="344.56471"
   inkscape:window-x="0"
   inkscape:window-y="28"
   inkscape:window-maximized="0"
   inkscape:current-layer="layer8" />



<g
   id="g3241"
   transform="translate(-40.335049,0.25980225)">
</g>
<g
   id="g3243"
   transform="translate(-40.335049,0.25980225)">
</g>
<g
   id="g3245"
   transform="translate(-40.335049,0.25980225)">
</g>
<g
   id="g3247"
   transform="translate(-40.335049,0.25980225)">
</g>
<g
   id="g3249"
   transform="translate(-40.335049,0.25980225)">
</g>
<g
   id="g3251"
   transform="translate(-40.335049,0.25980225)">
</g>
<g
   id="g3253"
   transform="translate(-40.335049,0.25980225)">
</g>
<g
   id="g3255"
   transform="translate(-40.335049,0.25980225)">
</g>
<g
   id="g3257"
   transform="translate(-40.335049,0.25980225)">
</g>
<g
   id="g3259"
   transform="translate(-40.335049,0.25980225)">
</g>
<g
   id="g3261"
   transform="translate(-40.335049,0.25980225)">
</g>
<g
   id="g3263"
   transform="translate(-40.335049,0.25980225)">
</g>
<g
   id="g3265"
   transform="translate(-40.335049,0.25980225)">
</g>
<g
   id="g3267"
   transform="translate(-40.335049,0.25980225)">
</g>
<g
   id="g3269"
   transform="translate(-40.335049,0.25980225)">
</g>
<g
   inkscape:groupmode="layer"
   id="layer2"
   inkscape:label="Layer 2"
   transform="translate(-40.335049,69.859802)"><rect
     style="opacity:1;fill:#ffffff;fill-opacity:0.94117647;stroke:none;stroke-width:0.20819484;stroke-miterlimit:4;stroke-dasharray:none;stroke-opacity:1;"
     id="rect3867"
     width="600"
     height="600"
     x="40.335049"
     y="-69.859802" /></g><g
   inkscape:groupmode="layer"
   id="layer8"
   inkscape:label="Layer 3"><rect
     style="opacity:1;fill:#ff0000;fill-opacity:0.94117647;stroke:none;stroke-width:0.2;stroke-miterlimit:4;stroke-dasharray:none;stroke-opacity:1"
     id="rect2777"
     width="599.86438"
     height="122.57627"
     x="0.13560453"
     y="477.42374" /></g><g
   inkscape:groupmode="layer"
   id="layer1"
   inkscape:label="Layer 1"
   transform="translate(-40.335049,69.859802)"><g
     id="g2963"
     transform="matrix(0.91525424,0,0,0.91536913,40.732654,-34.107738)"><g
       transform="translate(86.945317,-27.514241)"
       id="g3227"><g
         style="fill:#00017f;fill-opacity:0.94117647"
         id="g3225"><path
           inkscape:connector-curvature="0"
           style="fill:#00017f;fill-opacity:0.94117647"
           id="path3223"
           d="M 413.1,159.8 H 344.2 V 110.6 H 319.6 V 98.3 c 0,-15.8 -12.9,-28.7 -28.7,-28.7 -15.8,0 -28.7,12.9 -28.7,28.7 v 12.3 H 0 v 278.6 h 49.8 c 4,27.7 27.9,49.2 56.7,49.2 28.8,0 52.7,-21.4 56.7,-49.2 h 198 c 4,27.7 27.9,49.2 56.7,49.2 28.8,0 52.7,-21.4 56.7,-49.2 H 508 V 254.7 Z M 278.6,98.3 v 0 c 0,-6.8 5.5,-12.3 12.3,-12.3 6.8,0 12.3,5.5 12.3,12.3 v 12.3 H 278.6 Z M 106.5,422 c -22.6,0 -41,-18.4 -41,-41 0,-22.6 18.4,-41 41,-41 22.6,0 41,18.4 41,41 0,22.6 -18.4,41 -41,41 z M 327.8,372.8 H 163.2 c -4,-27.7 -27.9,-49.2 -56.7,-49.2 -28.8,0 -52.7,21.4 -56.7,49.2 H 16.4 V 127 h 311.4 z m 16.3,-196.6 h 62.2 l 81.9,81.9 H 344.1 Z M 417.9,422 c -22.6,0 -41,-18.4 -41,-41 0,-22.6 18.4,-41 41,-41 22.6,0 41,18.4 41,41 0,22.6 -18.4,41 -41,41 z m 73.8,-49.2 h -17.1 c -4,-27.7 -27.9,-49.2 -56.7,-49.2 -28.8,0 -52.7,21.4 -56.7,49.2 h -17 v -98.3 h 147.5 z" /></g></g><g
       style="fill:#00017f;fill-opacity:0.94117647"
       transform="translate(16.168722,-14.576584)"
       id="g3233"><g
         style="fill:#00017f;fill-opacity:0.94117647"
         id="g3231"><path
           style="fill:#00017f;fill-opacity:0.94117647"
           inkscape:connector-curvature="0"
           id="path3229"
           d="m 269.8,184.9 v -33.3 h -56.3 v 33.3 h -33.3 v 56.3 h 33.3 v 33.3 h 56.3 v -33.3 h 33.3 v -56.3 z m 17,40 h -33.3 v 33.3 h -23.6 v -33.3 h -33.3 v -0.1 -23.6 h 33.3 V 168 h 23.6 v 33.3 h 33.3 z" /></g></g></g></g></svg>