<?xml version="1.0" encoding="UTF-8" standalone="no"?>
<!-- Generator: Adobe Illustrator 19.0.0, SVG Export Plug-In . SVG Version: 6.00 Build 0)  -->

<svg
   xmlns:dc="http://purl.org/dc/elements/1.1/"
   xmlns:cc="http://creativecommons.org/ns#"
   xmlns:rdf="http://www.w3.org/1999/02/22-rdf-syntax-ns#"
   xmlns:svg="http://www.w3.org/2000/svg"
   xmlns="http://www.w3.org/2000/svg"
   xmlns:sodipodi="http://sodipodi.sourceforge.net/DTD/sodipodi-0.dtd"
   xmlns:inkscape="http://www.inkscape.org/namespaces/inkscape"
   version="1.1"
   id="Capa_1"
   x="0px"
   y="0px"
   viewBox="0 0 606.54779 479.45435"
   xml:space="preserve"
   sodipodi:docname="transport.svg"
   width="606.54779"
   height="479.45435"
   inkscape:version="0.92.4 5da689c313, 2019-01-14"><metadata
   id="metadata3276"><rdf:RDF><cc:Work
       rdf:about=""><dc:format>image/svg+xml</dc:format><dc:type
         rdf:resource="http://purl.org/dc/dcmitype/StillImage" /></cc:Work></rdf:RDF></metadata><defs
   id="defs3274" /><sodipodi:namedview
   pagecolor="#ffffff"
   bordercolor="#666666"
   borderopacity="1"
   objecttolerance="10"
   gridtolerance="10"
   guidetolerance="10"
   inkscape:pageopacity="0"
   inkscape:pageshadow="2"
   inkscape:window-width="1914"
   inkscape:window-height="1015"
   id="namedview3272"
   showgrid="false"
   inkscape:zoom="1.3139937"
   inkscape:cx="282.11137"
   inkscape:cy="243.31679"
   inkscape:window-x="0"
   inkscape:window-y="28"
   inkscape:window-maximized="0"
   inkscape:current-layer="layer2" />



<g
   id="g3241"
   transform="translate(-40.335049,-54.075467)">
</g>
<g
   id="g3243"
   transform="translate(-40.335049,-54.075467)">
</g>
<g
   id="g3245"
   transform="translate(-40.335049,-54.075467)">
</g>
<g
   id="g3247"
   transform="translate(-40.335049,-54.075467)">
</g>
<g
   id="g3249"
   transform="translate(-40.335049,-54.075467)">
</g>
<g
   id="g3251"
   transform="translate(-40.335049,-54.075467)">
</g>
<g
   id="g3253"
   transform="translate(-40.335049,-54.075467)">
</g>
<g
   id="g3255"
   transform="translate(-40.335049,-54.075467)">
</g>
<g
   id="g3257"
   transform="translate(-40.335049,-54.075467)">
</g>
<g
   id="g3259"
   transform="translate(-40.335049,-54.075467)">
</g>
<g
   id="g3261"
   transform="translate(-40.335049,-54.075467)">
</g>
<g
   id="g3263"
   transform="translate(-40.335049,-54.075467)">
</g>
<g
   id="g3265"
   transform="translate(-40.335049,-54.075467)">
</g>
<g
   id="g3267"
   transform="translate(-40.335049,-54.075467)">
</g>
<g
   id="g3269"
   transform="translate(-40.335049,-54.075467)">
</g>
<g
   inkscape:groupmode="layer"
   id="layer2"
   inkscape:label="Layer 2"
   transform="translate(-40.335049,15.524533)"><rect
     style="opacity:1;fill:#ffffff;fill-opacity:0.94117647;stroke:none;stroke-width:0.2;stroke-miterlimit:4;stroke-dasharray:none;stroke-opacity:1"
     id="rect3867"
     width="606.54779"
     height="479.45435"
     x="40.335049"
     y="-15.524533" /></g><g
   inkscape:groupmode="layer"
   id="layer1"
   inkscape:label="Layer 1"
   transform="translate(-40.335049,15.524533)"><g
     id="g3227"
     transform="translate(86.945317,-27.514241)"><g
       id="g3225"
       style="fill:#00017f;fill-opacity:0.94117647"><path
         d="M 413.1,159.8 H 344.2 V 110.6 H 319.6 V 98.3 c 0,-15.8 -12.9,-28.7 -28.7,-28.7 -15.8,0 -28.7,12.9 -28.7,28.7 v 12.3 H 0 v 278.6 h 49.8 c 4,27.7 27.9,49.2 56.7,49.2 28.8,0 52.7,-21.4 56.7,-49.2 h 198 c 4,27.7 27.9,49.2 56.7,49.2 28.8,0 52.7,-21.4 56.7,-49.2 H 508 V 254.7 Z M 278.6,98.3 v 0 c 0,-6.8 5.5,-12.3 12.3,-12.3 6.8,0 12.3,5.5 12.3,12.3 v 12.3 H 278.6 Z M 106.5,422 c -22.6,0 -41,-18.4 -41,-41 0,-22.6 18.4,-41 41,-41 22.6,0 41,18.4 41,41 0,22.6 -18.4,41 -41,41 z M 327.8,372.8 H 163.2 c -4,-27.7 -27.9,-49.2 -56.7,-49.2 -28.8,0 -52.7,21.4 -56.7,49.2 H 16.4 V 127 h 311.4 z m 16.3,-196.6 h 62.2 l 81.9,81.9 H 344.1 Z M 417.9,422 c -22.6,0 -41,-18.4 -41,-41 0,-22.6 18.4,-41 41,-41 22.6,0 41,18.4 41,41 0,22.6 -18.4,41 -41,41 z m 73.8,-49.2 h -17.1 c -4,-27.7 -27.9,-49.2 -56.7,-49.2 -28.8,0 -52.7,21.4 -56.7,49.2 h -17 v -98.3 h 147.5 z"
         id="path3223"
         style="fill:#00017f;fill-opacity:0.94117647"
         inkscape:connector-curvature="0" /></g></g><g
     id="g3233"
     transform="translate(16.168722,-14.576584)"
     style="fill:#00017f;fill-opacity:0.94117647"><g
       id="g3231"
       style="fill:#00017f;fill-opacity:0.94117647"><path
         d="m 269.8,184.9 v -33.3 h -56.3 v 33.3 h -33.3 v 56.3 h 33.3 v 33.3 h 56.3 v -33.3 h 33.3 v -56.3 z m 17,40 h -33.3 v 33.3 h -23.6 v -33.3 h -33.3 v -0.1 -23.6 h 33.3 V 168 h 23.6 v 33.3 h 33.3 z"
         id="path3229"
         inkscape:connector-curvature="0"
         style="fill:#00017f;fill-opacity:0.94117647" /></g></g></g></svg>