<?xml version="1.0" encoding="UTF-8" standalone="no"?>
<!-- Created with Inkscape (http://www.inkscape.org/) -->

<svg
   xmlns:dc="http://purl.org/dc/elements/1.1/"
   xmlns:cc="http://creativecommons.org/ns#"
   xmlns:rdf="http://www.w3.org/1999/02/22-rdf-syntax-ns#"
   xmlns:svg="http://www.w3.org/2000/svg"
   xmlns="http://www.w3.org/2000/svg"
   xmlns:sodipodi="http://sodipodi.sourceforge.net/DTD/sodipodi-0.dtd"
   xmlns:inkscape="http://www.inkscape.org/namespaces/inkscape"
   width="27.034361mm"
   height="27.034349mm"
   viewBox="0 0 27.034361 27.034349"
   version="1.1"
   id="svg8536"
   inkscape:version="0.92.4 5da689c313, 2019-01-14"
   sodipodi:docname="favicon.svg">
  <defs
     id="defs8530" />
  <sodipodi:namedview
     id="base"
     pagecolor="#ffffff"
     bordercolor="#666666"
     borderopacity="1.0"
     inkscape:pageopacity="0.0"
     inkscape:pageshadow="2"
     inkscape:zoom="2.8"
     inkscape:cx="118.94704"
     inkscape:cy="57.425518"
     inkscape:document-units="mm"
     inkscape:current-layer="layer9"
     showgrid="false"
     inkscape:window-width="1914"
     inkscape:window-height="1015"
     inkscape:window-x="0"
     inkscape:window-y="28"
     inkscape:window-maximized="0" />
  <metadata
     id="metadata8533">
    <rdf:RDF>
      <cc:Work
         rdf:about="">
        <dc:format>image/svg+xml</dc:format>
        <dc:type
           rdf:resource="http://purl.org/dc/dcmitype/StillImage" />
        <dc:title></dc:title>
      </cc:Work>
    </rdf:RDF>
  </metadata>
  <g
     inkscape:groupmode="layer"
     id="layer9"
     inkscape:label="Layer 2">
    <rect
       style="opacity:1;fill:#ffffff;fill-opacity:1;stroke:none;stroke-width:0.05291667;stroke-miterlimit:4;stroke-dasharray:none;stroke-opacity:1"
       id="rect9097"
       width="27.214285"
       height="26.930803"
       x="-0.094494052"
       y="0.10354632" />
  </g>
  <g
     inkscape:label="Layer 1"
     inkscape:groupmode="layer"
     id="layer1"
     transform="translate(-116.50663,-170.84592)">
    <path
       d="m 120.03441,187.89087 h 6.46162 v 6.46163 c 0,1.94854 1.57924,3.52777 3.52778,3.52777 1.94717,0 3.52777,-1.57923 3.52777,-3.52777 v -6.46163 h 6.46163 c 1.94717,0 3.52778,-1.58061 3.52778,-3.52777 0,-1.94855 -1.58061,-3.52779 -3.52778,-3.52779 h -6.46163 v -6.46161 c 0,-1.94855 -1.5806,-3.52778 -3.52777,-3.52778 -1.94854,0 -3.52778,1.57923 -3.52778,3.52778 v 6.46161 h -6.46162 c -1.94855,0 -3.52778,1.57924 -3.52778,3.52779 0,1.94716 1.57923,3.52777 3.52778,3.52777 z m 0,0"
       id="path5968"
       style="display:inline;fill:#00017f;fill-opacity:1;stroke-width:0.35277775"
       inkscape:connector-curvature="0" />
  </g>
</svg>
